# xmcd
#
# Track frame offsets:
#	150
#	14462
#	32613
#	48073
#	61063
#	77409
#	93169
#	107448
#	118746
#	135730
#
# Disc length: 2065 seconds
#
# Revision: 0
# Processed by: cddbd v1.5.2PL0 Copyright (c) Steve Scherf et al.
# Submitted via: dBpowerAMP V4.0
#
DISCID=6c080f0a
DTITLE=Mary Mckee and The Genesis - A Greater Love
DYEAR=2004
DGENRE=Gospel
TTITLE0=Try A Little Kindness
TTITLE1=Say "I" Do
TTITLE2=Love Lifted Me
TTITLE3=The Lord is My sherpherd
TTITLE4=Cast Down Your Cares
TTITLE5=Shattered Dreams
TTITLE6=My Songbird
TTITLE7=We Need A Lot More of Jesus
TTITLE8=Lord How Did it Feel
TTITLE9=Before He Calls Again
EXTD=
EXTT0=
EXTT1=
EXTT2=
EXTT3=
EXTT4=
EXTT5=
EXTT6=
EXTT7=
EXTT8=
EXTT9=
PLAYORDER=
